<svg xmlns="http://www.w3.org/2000/svg" xmlns:xlink="http://www.w3.org/1999/xlink" width="500" zoomAndPan="magnify" viewBox="0 0 375 374.999991" height="500" preserveAspectRatio="xMidYMid meet" version="1.0"><defs><g/></defs><g fill="#ffd701" fill-opacity="1"><g transform="translate(15.771098, 355.897081)"><g><path d="M 40.53125 -261.21875 L 0 -261.21875 L 0 -333.765625 L 170.640625 -333.765625 L 170.640625 -261.21875 L 130.109375 -261.21875 L 130.109375 0 L 40.53125 0 Z M 40.53125 -261.21875 "/></g></g></g><g fill="#ffd701" fill-opacity="1"><g transform="translate(186.407179, 355.897081)"><g><path d="M 8.5 -72.5625 L 92.078125 -72.5625 L 92.078125 -130.609375 L 78.0625 -130.609375 C 60.71875 -130.609375 47.707031 -132.109375 39.03125 -135.109375 C 30.351562 -138.109375 23.679688 -143.613281 19.015625 -151.625 C 16.679688 -155.289062 14.765625 -159.125 13.265625 -163.125 C 11.765625 -167.132812 10.507812 -171.804688 9.5 -177.140625 C 8.5 -182.484375 7.832031 -188.820312 7.5 -196.15625 C 7.164062 -203.5 7 -212.175781 7 -222.1875 L 7 -242.703125 C 7 -284.066406 13.835938 -310.585938 27.515625 -322.265625 C 30.523438 -324.597656 33.613281 -326.597656 36.78125 -328.265625 C 39.945312 -329.929688 44.03125 -331.097656 49.03125 -331.765625 C 54.039062 -332.429688 60.460938 -332.929688 68.296875 -333.265625 C 76.140625 -333.597656 86.066406 -333.765625 98.078125 -333.765625 L 175.140625 -333.765625 L 175.140625 -261.21875 L 96.578125 -261.21875 L 96.578125 -203.171875 L 112.59375 -203.171875 C 126.9375 -203.171875 138.773438 -201.914062 148.109375 -199.40625 C 157.453125 -196.90625 164.789062 -192.316406 170.125 -185.640625 C 175.46875 -178.972656 179.140625 -169.882812 181.140625 -158.375 C 183.148438 -146.863281 184.15625 -132.269531 184.15625 -114.59375 L 184.15625 -94.078125 C 184.15625 -74.054688 182.984375 -57.875 180.640625 -45.53125 C 178.304688 -33.1875 174.640625 -23.847656 169.640625 -17.515625 C 164.960938 -11.835938 159.707031 -7.664062 153.875 -5 C 148.039062 -2.332031 140.117188 -0.664062 130.109375 0 L 8.5 0 Z M 8.5 -72.5625 "/></g></g></g><g fill="#115173" fill-opacity="1"><g transform="translate(2.502239, 342.628223)"><g><path d="M 40.53125 -261.21875 L 0 -261.21875 L 0 -333.765625 L 170.640625 -333.765625 L 170.640625 -261.21875 L 130.109375 -261.21875 L 130.109375 0 L 40.53125 0 Z M 40.53125 -261.21875 "/></g></g></g><g fill="#115173" fill-opacity="1"><g transform="translate(173.138321, 342.628223)"><g><path d="M 8.5 -72.5625 L 92.078125 -72.5625 L 92.078125 -130.609375 L 78.0625 -130.609375 C 60.71875 -130.609375 47.707031 -132.109375 39.03125 -135.109375 C 30.351562 -138.109375 23.679688 -143.613281 19.015625 -151.625 C 16.679688 -155.289062 14.765625 -159.125 13.265625 -163.125 C 11.765625 -167.132812 10.507812 -171.804688 9.5 -177.140625 C 8.5 -182.484375 7.832031 -188.820312 7.5 -196.15625 C 7.164062 -203.5 7 -212.175781 7 -222.1875 L 7 -242.703125 C 7 -284.066406 13.835938 -310.585938 27.515625 -322.265625 C 30.523438 -324.597656 33.613281 -326.597656 36.78125 -328.265625 C 39.945312 -329.929688 44.03125 -331.097656 49.03125 -331.765625 C 54.039062 -332.429688 60.460938 -332.929688 68.296875 -333.265625 C 76.140625 -333.597656 86.066406 -333.765625 98.078125 -333.765625 L 175.140625 -333.765625 L 175.140625 -261.21875 L 96.578125 -261.21875 L 96.578125 -203.171875 L 112.59375 -203.171875 C 126.9375 -203.171875 138.773438 -201.914062 148.109375 -199.40625 C 157.453125 -196.90625 164.789062 -192.316406 170.125 -185.640625 C 175.46875 -178.972656 179.140625 -169.882812 181.140625 -158.375 C 183.148438 -146.863281 184.15625 -132.269531 184.15625 -114.59375 L 184.15625 -94.078125 C 184.15625 -74.054688 182.984375 -57.875 180.640625 -45.53125 C 178.304688 -33.1875 174.640625 -23.847656 169.640625 -17.515625 C 164.960938 -11.835938 159.707031 -7.664062 153.875 -5 C 148.039062 -2.332031 140.117188 -0.664062 130.109375 0 L 8.5 0 Z M 8.5 -72.5625 "/></g></g></g></svg>